<svg width="421" height="227" viewBox="0 0 421 227" fill="none" xmlns="http://www.w3.org/2000/svg">
                            <g opacity="0.5">
                                <path d="M186.771 166.737H161.42V206.453H186.771V166.737Z" stroke="#A6B2C4" stroke-width="1.69006" stroke-miterlimit="10" stroke-linecap="square"></path>
                                <path d="M223.108 166.737H197.757V206.453H223.108V166.737Z" stroke="#A6B2C4" stroke-width="1.69006" stroke-miterlimit="10" stroke-linecap="square"></path>
                                <path d="M259.444 166.737H234.093V206.453H259.444V166.737Z" stroke="#A6B2C4" stroke-width="1.69006" stroke-miterlimit="10" stroke-linecap="square"></path>
                                <path d="M79.4531 187.018H43.9619V194.623H79.4531V187.018Z" stroke="#A6B2C4" stroke-width="1.69006" stroke-miterlimit="10" stroke-linecap="square"></path>
                                <path d="M38.0459 180.257H84.6281" stroke="#A6B2C4" stroke-width="1.69006" stroke-miterlimit="10" stroke-linecap="square"></path>
                                <path d="M62.5527 133.781H360.003" stroke="#A6B2C4" stroke-width="1.69006" stroke-miterlimit="10" stroke-linecap="square"></path>
                                <path d="M61.707 133.781L61.707 143.921" stroke="#A6B2C4" stroke-width="1.69006" stroke-miterlimit="10" stroke-linecap="square"></path>
                                <path d="M211.277 133.781L211.277 143.921" stroke="#A6B2C4" stroke-width="1.69006" stroke-miterlimit="10" stroke-linecap="square"></path>
                                <path d="M360.002 133.781L360.002 143.921" stroke="#A6B2C4" stroke-width="1.69006" stroke-miterlimit="10" stroke-linecap="square"></path>
                                <path d="M211.277 122.795L211.277 132.936" stroke="#A6B2C4" stroke-width="1.69006" stroke-miterlimit="10" stroke-linecap="square"></path>
                                <path d="M215.503 54.3479H140.295V94.9093H215.503V54.3479Z" stroke="#A6B2C4" stroke-width="1.69006" stroke-miterlimit="10" stroke-linecap="square"></path>
                                <path d="M136.07 10.4064H130.154V16.3216H136.07V10.4064Z" stroke="#A6B2C4" stroke-width="1.69006" stroke-miterlimit="10" stroke-linecap="square"></path>
                                <path d="M147.9 10.4064H141.984V16.3216H147.9V10.4064Z" stroke="#A6B2C4" stroke-width="1.69006" stroke-miterlimit="10" stroke-linecap="square"></path>
                                <path d="M159.731 10.4064H153.815V16.3216H159.731V10.4064Z" stroke="#A6B2C4" stroke-width="1.69006" stroke-miterlimit="10" stroke-linecap="square"></path>
                                <path d="M233.775 54.4008H280.358" stroke="#A6B2C4" stroke-width="1.69006" stroke-miterlimit="10" stroke-linecap="square"></path>
                                <path d="M233.775 67.8684H280.358" stroke="#A6B2C4" stroke-width="1.69006" stroke-miterlimit="10" stroke-linecap="square"></path>
                                <path d="M233.775 81.3889H280.358" stroke="#A6B2C4" stroke-width="1.69006" stroke-miterlimit="10" stroke-linecap="square"></path>
                                <path d="M233.775 94.9093H260.394" stroke="#A6B2C4" stroke-width="1.69006" stroke-miterlimit="10" stroke-linecap="square"></path>
                                <path d="M264.514 13.7865H289.02" stroke="#A6B2C4" stroke-width="1.69006" stroke-miterlimit="10" stroke-linecap="square"></path>
                                <path d="M122.55 27.307H299.161" stroke="#A6B2C4" stroke-width="1.69006" stroke-miterlimit="10" stroke-linecap="square"></path>
                                <path d="M299.161 1.11108H122.55V121.105H299.161V1.11108Z" stroke="#A6B2C4" stroke-width="1.69006" stroke-miterlimit="10" stroke-linecap="square"></path>
                                <path d="M271.275 145.611H150.436V225.889H271.275V145.611Z" stroke="#A6B2C4" stroke-width="1.69006" stroke-miterlimit="10" stroke-linecap="square"></path>
                                <path d="M122.549 145.611H1.70996V225.889H122.549V145.611Z" stroke="#A6B2C4" stroke-width="1.69006" stroke-miterlimit="10" stroke-linecap="square"></path>
                                <path d="M419.999 145.611H299.16V225.889H419.999V145.611Z" stroke="#A6B2C4" stroke-width="1.69006" stroke-miterlimit="10" stroke-linecap="square"></path>
                                <path d="M336.341 183.637H382.923" stroke="#A6B2C4" stroke-width="1.69006" stroke-miterlimit="10" stroke-linecap="square"></path>
                                <path d="M336.341 190.398H382.923" stroke="#A6B2C4" stroke-width="1.69006" stroke-miterlimit="10" stroke-linecap="square"></path>
                            </g>
                        </svg>